<?xml version="1.0" standalone="no"?>
<!DOCTYPE svg PUBLIC "-//W3C//DTD SVG 20010904//EN"
 "http://www.w3.org/TR/2001/REC-SVG-20010904/DTD/svg10.dtd">
<svg version="1.0" xmlns="http://www.w3.org/2000/svg"
 width="335.000000pt" height="150.000000pt" viewBox="0 0 335.000000 150.000000"
 preserveAspectRatio="xMidYMid meet">

<g transform="translate(0.000000,150.000000) scale(0.100000,-0.100000)"
fill="#000000" stroke="none">
<path d="M1236 1478 c-9 -12 -16 -39 -16 -60 l0 -38 -598 0 c-452 0 -601 -3
-610 -12 -9 -9 -12 -105 -12 -369 0 -312 2 -360 16 -373 14 -14 83 -16 610
-16 l594 0 0 -33 c0 -18 7 -43 16 -55 l15 -22 474 0 c529 0 505 -3 505 70 l0
40 550 2 c477 3 552 5 560 18 15 23 13 723 -2 738 -9 9 -147 12 -560 12 l-548
0 0 43 c0 81 26 77 -508 77 l-471 0 -15 -22z m944 -478 l0 -450 -455 0 -455 0
0 450 0 450 455 0 455 0 0 -450z m-960 0 l0 -350 -590 0 -590 0 0 350 0 350
590 0 590 0 0 -350z m2090 0 l0 -350 -540 0 -540 0 0 350 0 350 540 0 540 0 0
-350z"/>
<path d="M1700 1347 c-78 -18 -129 -45 -178 -95 -70 -70 -87 -117 -87 -247 0
-133 17 -187 82 -256 66 -71 144 -102 268 -106 84 -3 110 0 165 19 l65 23 3
76 3 76 -59 -29 c-143 -71 -276 -36 -327 86 -24 56 -22 162 3 219 49 111 198
144 334 73 l48 -25 0 74 0 74 -57 21 c-70 26 -190 34 -263 17z"/>
<path d="M220 1001 l0 -191 88 0 c185 0 262 57 262 193 0 72 -32 126 -90 154
-33 16 -73 23 -152 29 l-108 6 0 -191z m216 77 c14 -13 27 -41 31 -61 12 -74
-35 -127 -112 -127 l-35 0 0 111 0 112 46 -6 c31 -3 55 -13 70 -29z"/>
<path d="M820 1000 l0 -190 135 0 135 0 0 40 0 40 -85 0 -85 0 0 40 0 40 75 0
75 0 0 35 0 35 -75 0 -75 0 0 35 0 35 80 0 80 0 0 40 0 40 -130 0 -130 0 0
-190z"/>
<path d="M2462 1176 c-63 -29 -79 -127 -29 -174 12 -12 47 -28 77 -36 30 -8
63 -17 73 -21 21 -9 23 -51 1 -59 -28 -11 -94 -6 -131 9 -19 8 -37 15 -38 15
-2 0 -5 -18 -7 -40 -3 -39 -2 -41 32 -49 144 -37 240 -9 256 75 15 82 -21 124
-128 145 -62 12 -82 27 -72 53 12 31 96 32 167 1 15 -6 17 -1 17 33 0 23 -5
44 -11 48 -24 15 -174 15 -207 0z"/>
<path d="M2960 1000 l0 -190 50 0 50 0 0 190 0 190 -50 0 -50 0 0 -190z"/>
<path d="M450 365 l0 -66 73 3 72 3 3 48 c4 67 -7 77 -84 77 l-64 0 0 -65z
m120 -5 l0 -40 -45 0 -45 0 0 40 0 40 45 0 45 0 0 -40z"/>
<path d="M627 423 c-4 -3 -7 -33 -7 -65 l0 -58 75 0 c43 0 75 4 75 10 0 6 -27
10 -60 10 -53 0 -60 2 -60 20 0 17 7 20 50 20 28 0 50 5 50 10 0 6 -20 10 -44
10 -25 0 -48 5 -51 10 -4 6 17 10 54 10 48 0 61 3 61 15 0 12 -14 15 -68 15
-38 0 -72 -3 -75 -7z"/>
<path d="M790 365 c0 -51 3 -65 15 -65 8 0 15 9 15 20 0 16 8 19 58 22 57 3
57 3 60 37 4 43 -8 51 -85 51 l-63 0 0 -65z m125 15 c0 -11 -13 -16 -47 -18
-43 -3 -48 -1 -48 18 0 19 5 21 48 18 34 -2 47 -7 47 -18z"/>
<path d="M978 419 c-24 -14 -26 -119 -3 -119 8 0 15 9 15 20 0 17 7 20 45 20
38 0 45 -3 45 -20 0 -11 7 -20 15 -20 21 0 21 93 -1 114 -18 18 -89 21 -116 5z
m102 -39 c0 -17 -7 -20 -45 -20 -38 0 -45 3 -45 20 0 17 7 20 45 20 38 0 45
-3 45 -20z"/>
<path d="M1130 365 c0 -51 3 -65 15 -65 8 0 15 9 15 20 0 25 18 25 50 0 14
-11 36 -20 49 -20 l23 0 -23 19 -23 18 22 7 c16 5 22 15 22 35 0 41 -17 51
-87 51 l-63 0 0 -65z m125 20 c0 -5 -21 -11 -47 -13 -39 -3 -48 0 -48 13 0 13
9 16 48 13 26 -2 47 -7 47 -13z"/>
<path d="M1290 415 c0 -10 10 -15 30 -15 29 0 30 -1 30 -50 0 -38 4 -50 15
-50 11 0 15 12 15 50 0 49 1 50 30 50 20 0 30 5 30 15 0 12 -15 15 -75 15 -60
0 -75 -3 -75 -15z"/>
<path d="M1466 414 c-22 -21 -22 -114 -1 -114 8 0 15 9 15 20 0 17 7 20 45 20
38 0 45 -3 45 -20 0 -11 7 -20 15 -20 12 0 15 13 15 55 0 43 -4 56 -19 65 -30
15 -97 12 -115 -6z m104 -34 c0 -17 -7 -20 -45 -20 -38 0 -45 3 -45 20 0 17 7
20 45 20 38 0 45 -3 45 -20z"/>
<path d="M1627 423 c-4 -3 -7 -33 -7 -65 0 -45 3 -58 15 -58 11 0 15 11 15 38
l1 37 38 -43 38 -43 36 40 c20 23 39 41 42 41 3 0 5 -16 5 -35 0 -19 5 -35 10
-35 6 0 10 28 10 65 0 36 -3 65 -7 65 -5 0 -28 -23 -53 -51 l-45 -50 -40 50
c-40 52 -46 56 -58 44z"/>
<path d="M1860 365 l0 -65 75 0 c90 0 101 18 13 22 -50 2 -63 6 -66 21 -3 14
4 17 47 17 28 0 51 5 51 10 0 6 -20 10 -44 10 -25 0 -48 5 -51 10 -4 6 19 10
60 10 49 0 66 3 63 13 -3 8 -30 13 -76 15 l-72 3 0 -66z"/>
<path d="M2030 365 c0 -37 4 -65 10 -65 6 0 10 18 10 40 0 22 3 40 6 40 4 0
29 -21 56 -46 32 -30 53 -43 59 -37 14 14 7 125 -8 131 -9 2 -13 -10 -13 -43
l0 -47 -54 46 c-30 25 -57 46 -60 46 -3 0 -6 -29 -6 -65z"/>
<path d="M2190 415 c0 -10 10 -15 30 -15 29 0 30 -1 30 -50 0 -38 4 -50 15
-50 11 0 15 12 15 50 0 49 1 50 30 50 20 0 30 5 30 15 0 12 -15 15 -75 15 -60
0 -75 -3 -75 -15z"/>
<path d="M2366 417 c-13 -10 -17 -24 -14 -62 l3 -50 70 0 70 0 3 48 c2 27 -2
55 -9 63 -15 18 -99 19 -123 1z m104 -58 l0 -40 -42 3 c-42 3 -43 4 -46 41
l-3 37 45 0 46 0 0 -41z"/>
<path d="M2590 365 l0 -66 73 3 72 3 3 48 c4 67 -7 77 -84 77 l-64 0 0 -65z
m118 -2 c-3 -37 -4 -38 -45 -41 l-43 -3 0 40 0 41 46 0 45 0 -3 -37z"/>
<path d="M2760 365 l0 -65 75 0 c43 0 75 4 75 10 0 6 -27 10 -60 10 -53 0 -60
2 -60 20 0 17 7 20 50 20 28 0 50 5 50 10 0 6 -22 10 -50 10 -27 0 -50 5 -50
10 0 6 27 10 60 10 47 0 60 3 60 15 0 12 -15 15 -75 15 l-75 0 0 -65z"/>
<path d="M1483 183 c9 -2 23 -2 30 0 6 3 -1 5 -18 5 -16 0 -22 -2 -12 -5z"/>
<path d="M38 159 c-13 -7 -18 -23 -18 -59 0 -60 17 -72 92 -68 77 4 74 26 -4
30 l-63 3 0 35 0 35 63 3 c44 2 62 7 59 15 -5 15 -106 20 -129 6z"/>
<path d="M208 159 c-24 -14 -26 -114 -2 -123 31 -12 102 -6 118 10 21 20 21
88 0 108 -18 18 -89 21 -116 5z m97 -59 c0 -35 0 -35 -45 -35 -39 0 -45 3 -48
23 -6 43 4 53 50 50 42 -3 43 -4 43 -38z"/>
<path d="M360 99 c0 -52 3 -70 13 -67 6 3 13 22 15 42 l3 38 37 -42 36 -43 38
44 38 44 0 -42 c0 -32 4 -43 15 -43 12 0 15 14 15 64 0 36 -4 67 -9 70 -5 4
-29 -17 -53 -45 l-44 -51 -43 51 c-24 28 -47 51 -52 51 -5 0 -9 -32 -9 -71z"/>
<path d="M597 163 c-4 -3 -7 -35 -7 -70 0 -49 3 -63 15 -63 9 0 15 9 15 25 0
22 4 24 58 27 55 3 57 4 60 33 3 19 -2 33 -14 42 -18 13 -115 18 -127 6z m118
-43 c0 -11 -13 -16 -47 -18 -43 -3 -48 -1 -48 18 0 19 5 21 48 18 34 -2 47 -7
47 -18z"/>
<path d="M760 111 c0 -69 11 -81 79 -81 56 0 73 20 69 83 -4 73 -28 75 -28 3
l0 -56 -44 0 -45 0 -3 52 c-4 77 -28 76 -28 -1z"/>
<path d="M920 155 c0 -10 10 -15 29 -15 29 0 30 -2 33 -52 4 -74 28 -77 28 -4
0 56 0 56 30 56 20 0 30 5 30 15 0 12 -15 15 -75 15 -60 0 -75 -3 -75 -15z"/>
<path d="M1110 163 c-24 -9 -30 -25 -30 -80 0 -41 4 -53 15 -53 8 0 15 9 15
20 0 20 5 21 87 20 4 0 8 -8 8 -17 0 -9 6 -18 13 -20 9 -4 12 12 12 56 0 57
-2 62 -26 71 -27 11 -70 12 -94 3z m90 -43 c0 -17 -7 -20 -45 -20 -31 0 -45 4
-45 13 0 21 11 27 52 27 31 0 38 -3 38 -20z"/>
<path d="M1266 154 c-9 -9 -16 -32 -16 -54 0 -42 20 -70 51 -70 11 0 19 -7 19
-17 1 -17 1 -17 14 0 7 9 25 17 40 17 16 0 26 5 26 15 0 12 -13 15 -61 15
l-60 0 3 38 3 37 58 3 c42 2 57 7 57 17 0 22 -113 21 -134 -1z"/>
<path d="M1439 149 c-15 -15 -19 -30 -17 -66 3 -46 28 -76 28 -34 0 19 6 21
50 21 43 0 50 -3 50 -20 0 -11 5 -20 10 -20 6 0 10 27 10 60 0 48 -4 61 -19
70 -33 17 -89 12 -112 -11z m106 -29 c0 -11 -13 -16 -47 -18 -36 -2 -48 0 -48
11 0 23 12 28 55 25 28 -2 40 -8 40 -18z"/>
<path d="M1613 163 c-8 -3 -13 -26 -13 -63 0 -65 5 -70 70 -70 65 0 70 5 70
70 0 44 -4 59 -16 64 -18 7 -93 7 -111 -1z m102 -63 c0 -35 0 -35 -45 -35 -39
0 -45 3 -48 23 -6 43 4 53 50 50 42 -3 43 -4 43 -38z"/>
<path d="M1837 163 c-4 -3 -7 -35 -7 -70 l0 -63 75 0 c60 0 75 3 75 15 0 12
-13 15 -60 15 -53 0 -60 2 -60 20 0 17 7 20 50 20 28 0 50 5 50 10 0 6 -22 10
-50 10 -27 0 -50 5 -50 10 0 6 27 10 60 10 47 0 60 3 60 15 0 12 -14 15 -68
15 -38 0 -72 -3 -75 -7z"/>
<path d="M2083 164 c-19 -8 -16 -61 3 -68 9 -3 33 -6 55 -6 28 0 39 -4 39 -15
0 -12 -13 -15 -55 -15 -42 0 -55 -3 -55 -15 0 -11 13 -15 53 -15 66 0 90 16
85 55 -3 29 -5 30 -61 33 -73 4 -65 22 9 22 40 0 55 4 52 13 -5 12 -101 21
-125 11z"/>
<path d="M2240 100 c0 -40 4 -70 10 -70 6 0 10 30 10 70 0 40 -4 70 -10 70 -6
0 -10 -30 -10 -70z"/>
<path d="M2303 164 c-19 -8 -16 -61 3 -68 9 -3 33 -6 55 -6 28 0 39 -4 39 -15
0 -12 -13 -15 -55 -15 -42 0 -55 -3 -55 -15 0 -11 13 -15 53 -15 66 0 90 16
85 55 -3 29 -5 30 -61 33 -73 4 -65 22 9 22 40 0 55 4 52 13 -5 12 -101 21
-125 11z"/>
<path d="M2440 155 c0 -10 10 -15 30 -15 30 0 30 -1 30 -55 0 -42 3 -55 15
-55 12 0 15 13 15 55 0 54 0 55 30 55 20 0 30 5 30 15 0 12 -15 15 -75 15 -60
0 -75 -3 -75 -15z"/>
<path d="M2610 100 l0 -70 70 0 c56 0 70 3 70 15 0 12 -13 15 -60 15 -53 0
-60 2 -60 20 0 17 7 20 50 20 28 0 50 5 50 10 0 6 -22 10 -50 10 -27 0 -50 5
-50 10 0 6 27 10 60 10 47 0 60 3 60 15 0 12 -14 15 -70 15 l-70 0 0 -70z"/>
<path d="M2780 100 c0 -40 4 -70 10 -70 6 0 10 19 10 43 l1 42 39 -44 39 -45
40 45 40 44 1 -42 c0 -24 5 -43 10 -43 6 0 10 30 10 70 0 39 -3 70 -7 70 -5 0
-26 -22 -48 -50 -22 -27 -42 -49 -45 -50 -3 0 -23 23 -45 50 -22 28 -43 50
-47 50 -5 0 -8 -31 -8 -70z"/>
<path d="M3028 159 c-14 -8 -18 -23 -18 -69 0 -33 4 -60 10 -60 6 0 10 9 10
20 0 17 7 20 50 20 43 0 50 -3 50 -20 0 -11 7 -20 15 -20 24 0 20 95 -5 120
-22 22 -82 27 -112 9z m100 -41 c3 -15 -4 -18 -42 -18 -25 0 -48 5 -51 10 -12
20 7 31 48 28 30 -2 43 -8 45 -20z"/>
<path d="M3193 163 c-16 -6 -17 -45 -1 -61 7 -7 34 -12 61 -12 71 0 57 -24
-16 -28 -42 -2 -57 -7 -57 -17 0 -12 14 -15 58 -15 72 0 84 8 80 51 -3 33 -4
34 -55 37 -70 4 -68 22 2 22 42 0 55 3 55 15 0 12 -13 15 -57 14 -32 0 -64 -3
-70 -6z"/>
</g>
</svg>
